<svg xmlns="http://www.w3.org/2000/svg" width="22.434" height="21.305" viewBox="0 0 22.434 21.305">
  <g id="noun_profile_956157" transform="translate(-33 15)">
    <g id="Group_15" data-name="Group 15" transform="translate(33 -15)">
      <g id="Group_14" data-name="Group 14">
        <path id="Path_4" data-name="Path 4" d="M38.255,12.716A5.95,5.95,0,0,0,32.128,7,5.95,5.95,0,0,0,26,12.716a5.95,5.95,0,0,0,6.128,5.716A5.95,5.95,0,0,0,38.255,12.716Z" transform="translate(-20.91 -7)"/>
        <path id="Path_5" data-name="Path 5" d="M21.657,54.71a8.364,8.364,0,0,1-4.879,0,6.6,6.6,0,0,0-6.843,1.715A7.652,7.652,0,0,0,8,61.465a2,2,0,0,0,2.075,1.923H28.359a2,2,0,0,0,2.075-1.923,7.652,7.652,0,0,0-1.935-5.04A6.611,6.611,0,0,0,21.657,54.71Z" transform="translate(-8 -42.083)"/>
      </g>
    </g>
  </g>
</svg>
